<mxfile host="65bd71144e">
    <diagram id="c_uTJY3UlmsCEhhQj3t5" name="Page-1">
        <mxGraphModel dx="1002" dy="1663" grid="1" gridSize="10" guides="1" tooltips="1" connect="1" arrows="1" fold="1" page="1" pageScale="1" pageWidth="850" pageHeight="1100" math="0" shadow="0">
            <root>
                <mxCell id="0"/>
                <mxCell id="1" parent="0"/>
                <mxCell id="2" value="&lt;b&gt;&lt;font style=&quot;font-size: 39px;&quot;&gt;Classical Waterfall Model&lt;/font&gt;&lt;/b&gt;" style="rounded=1;whiteSpace=wrap;html=1;gradientColor=#d4bb16;glass=1;shadow=1;fillColor=#17c214;gradientDirection=north;" vertex="1" parent="1">
                    <mxGeometry x="110" y="-20" width="550" height="110" as="geometry"/>
                </mxCell>
                <mxCell id="3" value="Feasibility Study" style="rounded=1;whiteSpace=wrap;html=1;shadow=1;glass=1;fontSize=39;gradientDirection=north;" vertex="1" parent="1">
                    <mxGeometry x="160" y="240" width="510" height="70" as="geometry"/>
                </mxCell>
                <mxCell id="4" value="Requirement Analysis" style="rounded=1;whiteSpace=wrap;html=1;shadow=1;glass=1;fontSize=39;gradientDirection=north;" vertex="1" parent="1">
                    <mxGeometry x="200" y="410" width="450" height="80" as="geometry"/>
                </mxCell>
                <mxCell id="5" value="Design" style="rounded=1;whiteSpace=wrap;html=1;shadow=1;glass=1;fontSize=39;gradientDirection=north;" vertex="1" parent="1">
                    <mxGeometry x="230" y="620" width="370" height="100" as="geometry"/>
                </mxCell>
                <mxCell id="6" value="Coding and unit Testing" style="rounded=1;whiteSpace=wrap;html=1;shadow=1;glass=1;fontSize=39;gradientDirection=north;" vertex="1" parent="1">
                    <mxGeometry x="240" y="850" width="420" height="130" as="geometry"/>
                </mxCell>
                <mxCell id="7" value="Integration and System Testing" style="rounded=1;whiteSpace=wrap;html=1;shadow=1;glass=1;fontSize=39;gradientDirection=north;" vertex="1" parent="1">
                    <mxGeometry x="215" y="1130" width="555" height="100" as="geometry"/>
                </mxCell>
                <mxCell id="8" value="Maintainance" style="rounded=1;whiteSpace=wrap;html=1;shadow=1;glass=1;fontSize=39;gradientDirection=north;" vertex="1" parent="1">
                    <mxGeometry x="200" y="1370" width="500" height="100" as="geometry"/>
                </mxCell>
                <mxCell id="9" value="" style="shape=flexArrow;endArrow=classic;html=1;fontSize=39;entryX=0.339;entryY=-0.045;entryDx=0;entryDy=0;entryPerimeter=0;" edge="1" parent="1" target="4">
                    <mxGeometry width="50" height="50" relative="1" as="geometry">
                        <mxPoint x="350" y="310" as="sourcePoint"/>
                        <mxPoint x="400" y="260" as="targetPoint"/>
                    </mxGeometry>
                </mxCell>
                <mxCell id="10" value="" style="shape=flexArrow;endArrow=classic;html=1;fontSize=39;entryX=0.301;entryY=0.008;entryDx=0;entryDy=0;entryPerimeter=0;" edge="1" parent="1" target="5">
                    <mxGeometry width="50" height="50" relative="1" as="geometry">
                        <mxPoint x="340" y="490" as="sourcePoint"/>
                        <mxPoint x="390" y="440" as="targetPoint"/>
                    </mxGeometry>
                </mxCell>
                <mxCell id="11" value="" style="shape=flexArrow;endArrow=classic;html=1;fontSize=39;entryX=0.25;entryY=0;entryDx=0;entryDy=0;" edge="1" parent="1" target="6">
                    <mxGeometry width="50" height="50" relative="1" as="geometry">
                        <mxPoint x="340" y="720" as="sourcePoint"/>
                        <mxPoint x="390" y="670" as="targetPoint"/>
                    </mxGeometry>
                </mxCell>
                <mxCell id="12" value="" style="shape=flexArrow;endArrow=classic;html=1;fontSize=39;" edge="1" parent="1">
                    <mxGeometry width="50" height="50" relative="1" as="geometry">
                        <mxPoint x="360" y="980" as="sourcePoint"/>
                        <mxPoint x="370" y="1120" as="targetPoint"/>
                    </mxGeometry>
                </mxCell>
                <mxCell id="13" value="" style="shape=flexArrow;endArrow=classic;html=1;fontSize=39;entryX=0.322;entryY=-0.028;entryDx=0;entryDy=0;entryPerimeter=0;" edge="1" parent="1" target="8">
                    <mxGeometry width="50" height="50" relative="1" as="geometry">
                        <mxPoint x="360" y="1230" as="sourcePoint"/>
                        <mxPoint x="410" y="1180" as="targetPoint"/>
                    </mxGeometry>
                </mxCell>
            </root>
        </mxGraphModel>
    </diagram>
</mxfile>